<svg width="30" height="33" viewBox="0 0 30 33" fill="none"
    xmlns="http://www.w3.org/2000/svg">
    <path d="M9.06463 24.2383L10.005 23.6176L17.9142 18.3947C18.2194 18.1628 18.7773 18.1877 19.1353 18.3947L28.9778 24.1634C29.3322 24.3703 29.3848 24.7307 29.055 24.9376C26.5356 26.6179 19.4651 31.7909 17.0229 32.5936C15.6509 33.0574 13.3841 33.3963 11.0437 32.0263L7.20139 29.7752L4.3767 28.1199C2.724 27.1388 1.62921 25.6903 1.07129 23.7995C3.81878 26.229 6.08204 26.1791 9.05761 24.2383H9.06463Z" fill="url(#paint0_linear_422_53627)"/>
    <path d="M12.0403 7.03899L12.0894 8.17704L12.1386 11.0489V21.9122L12.0894 24.7841L12.0403 25.9221C11.8368 29.4897 12.9316 31.5339 16.3914 32.7255C14.5106 33.1893 12.7281 32.9574 11.0508 31.9763L8.2261 30.3459L4.38382 28.0698C2.12056 26.7248 1.25385 24.6057 0.948576 23.2072C0.724005 22.2226 0.695933 19.4541 0.745058 16.5073V16.4574C0.695933 13.507 0.724005 10.7136 0.948576 9.75748C1.25385 8.33402 2.11705 6.21488 4.38382 4.89488L8.2261 2.61877L11.0508 0.988395C12.7281 0.00731417 14.5071 -0.228145 16.3914 0.214233C12.9316 1.43077 11.8368 3.44645 12.0403 7.04256V7.03899Z" fill="url(#paint1_linear_422_53627)"/>
    <path d="M12.0402 7.03883L12.0894 8.17689L12.2402 10.8668L10.0015 9.39343L9.06115 8.77267C6.11014 6.83191 3.82232 6.78197 1.07483 9.18651C1.35554 8.30889 1.8117 7.24575 2.67841 6.28964C3.16264 5.74737 3.72056 5.28002 4.38375 4.89472L7.20844 3.23937L8.22603 2.61862L11.0507 0.988238C11.7104 0.599373 12.3981 0.317535 13.1105 0.160562C14.3316 -0.096303 15.4755 0.00715644 16.3667 0.210508C12.9315 1.42705 11.8402 3.44272 12.0437 7.03883H12.0402Z" fill="#45FFD5"/>
    <path d="M9.06463 8.77273L10.005 9.39348L17.9142 14.6164C18.2194 14.8483 18.7773 14.8233 19.1353 14.6164L28.9778 8.84765C29.3322 8.64073 29.3848 8.2804 29.055 8.07348C26.5356 6.39316 19.4651 1.22019 17.0229 0.417484C15.6509 -0.0462995 13.3841 -0.385218 11.0437 0.984728L7.20139 3.23586L4.3767 4.89121C2.724 5.87229 1.62921 7.32073 1.07129 9.21154C3.81878 6.78202 6.08204 6.83197 9.05761 8.77273H9.06463Z" fill="url(#paint2_linear_422_53627)"/>
    <path d="M12.0894 8.17704L12.1385 10.8135L10.0015 9.39001L9.06115 8.76925C6.11014 6.8285 3.82232 6.77855 1.07483 9.18309C1.35554 8.30547 1.8117 7.24233 2.67841 6.28623C3.16264 5.74396 3.72056 5.2766 4.38375 4.89131L7.20844 3.23595L8.22603 2.6152L11.0507 0.98482C11.7104 0.595955 12.3981 0.314117 13.1105 0.157144C14.3316 -0.099721 15.4755 0.00373847 16.3667 0.20709C13.314 0.931306 11.9911 3.12893 12.0929 8.17347L12.0894 8.17704Z" fill="url(#paint3_linear_422_53627)"/>
    <path d="M12.0894 24.7807L12.1385 22.1157L10.0015 23.5392L9.06115 24.1599C6.11014 26.1257 3.82232 26.1756 1.07483 23.7461C1.35554 24.6523 1.8117 25.7118 2.67841 26.6679C3.16264 27.1852 3.72056 27.6776 4.38375 28.0629L7.20844 29.7182L8.22603 30.314L11.0507 31.9693C11.7104 32.3582 12.3981 32.6151 13.1105 32.772C14.3316 33.0575 15.4755 32.9255 16.3667 32.7221C13.314 32.0229 11.9911 29.8252 12.0929 24.7843L12.0894 24.7807Z" fill="url(#paint4_linear_422_53627)"/>
    <defs>
        <linearGradient id="paint0_linear_422_53627" x1="15.9509" y1="28.4936" x2="27.5978" y2="20.8735" gradientUnits="userSpaceOnUse">
            <stop stop-color="#4F42FF"/>
            <stop offset="1" stop-color="#9E6EFF"/>
        </linearGradient>
        <linearGradient id="paint1_linear_422_53627" x1="13.539" y1="9.52947" x2="13.6707" y2="26.8787" gradientUnits="userSpaceOnUse">
            <stop stop-color="#00419C"/>
            <stop offset="1" stop-color="#2197FF"/>
        </linearGradient>
        <linearGradient id="paint2_linear_422_53627" x1="16.8158" y1="8.02225" x2="32.8094" y2="12.5267" gradientUnits="userSpaceOnUse">
            <stop stop-color="#2EFFAF"/>
            <stop offset="1" stop-color="#00B8AC"/>
        </linearGradient>
        <linearGradient id="paint3_linear_422_53627" x1="16.9867" y1="7.62877" x2="7.3311" y2="8.5703" gradientUnits="userSpaceOnUse">
            <stop stop-color="#0091D4"/>
            <stop offset="1" stop-color="#29DFFF"/>
        </linearGradient>
        <linearGradient id="paint4_linear_422_53627" x1="16.4643" y1="29.8217" x2="13.0035" y2="26.5192" gradientUnits="userSpaceOnUse">
            <stop stop-color="#549BFF"/>
            <stop offset="1" stop-color="#00BBFF"/>
        </linearGradient>
    </defs>
</svg>